<svg width="1024" height="200" viewBox="0 0 1024 200" fill="none" xmlns="http://www.w3.org/2000/svg">
<path d="M0 0H1024C531.675 35.9291 293.326 73.2659 0 200V0Z" fill="#4475F1"/>
<path d="M608 96.5C608 149.795 564.795 193 511.5 193C458.205 193 415 149.795 415 96.5C415 43.2045 458.205 0 511.5 0C564.795 0 608 43.2045 608 96.5Z" fill="#16F7CF"/>
<g style="mix-blend-mode:overlay">
<path d="M85 123.6V69H104.125C110.75 69 115.775 70.275 119.2 72.825C122.625 75.35 124.338 79.0625 124.338 83.9625C124.338 86.6375 123.65 89 122.275 91.05C120.9 93.075 118.988 94.5625 116.538 95.5125C119.338 96.2125 121.538 97.625 123.138 99.75C124.763 101.875 125.575 104.475 125.575 107.55C125.575 112.8 123.9 116.775 120.55 119.475C117.2 122.175 112.425 123.55 106.225 123.6H85ZM96.25 99.825V114.563H105.888C108.538 114.563 110.6 113.938 112.075 112.688C113.575 111.413 114.325 109.663 114.325 107.438C114.325 102.438 111.738 99.9 106.563 99.825H96.25ZM96.25 91.875H104.575C110.25 91.775 113.088 89.5125 113.088 85.0875C113.088 82.6125 112.363 80.8375 110.913 79.7625C109.488 78.6625 107.225 78.1125 104.125 78.1125H96.25V91.875Z" fill="white"/>
<path d="M192.663 103.613H183.7V123.6H172.45V69H192.738C199.188 69 204.163 70.4375 207.663 73.3125C211.163 76.1875 212.913 80.25 212.913 85.5C212.913 89.225 212.1 92.3375 210.475 94.8375C208.875 97.3125 206.438 99.2875 203.163 100.763L214.975 123.075V123.6H202.9L192.663 103.613ZM183.7 94.5H192.775C195.6 94.5 197.788 93.7875 199.338 92.3625C200.888 90.9125 201.663 88.925 201.663 86.4C201.663 83.825 200.925 81.8 199.45 80.325C198 78.85 195.763 78.1125 192.738 78.1125H183.7V94.5Z" fill="white"/>
<path d="M292.75 99.9375H271.15V114.563H296.5V123.6H259.9V69H296.425V78.1125H271.15V91.125H292.75V99.9375Z" fill="white"/>
<path d="M385.9 123.6H374.65L352.75 87.675V123.6H341.5V69H352.75L374.688 105V69H385.9V123.6Z" fill="white"/>
<path d="M474.1 78.1125H457.375V123.6H446.125V78.1125H429.625V69H474.1V78.1125Z" fill="white"/>
</g>
<path d="M341 0H1024V200C685.142 139.773 539.746 94.9546 341 0Z" fill="#9290FC"/>
<g style="mix-blend-mode:overlay">
<path d="M588.245 109.025C588.245 106.9 587.495 105.275 585.995 104.15C584.495 103 581.795 101.8 577.895 100.55C573.995 99.275 570.907 98.025 568.632 96.8C562.432 93.45 559.332 88.9375 559.332 83.2625C559.332 80.3125 560.157 77.6875 561.807 75.3875C563.482 73.0625 565.87 71.25 568.97 69.95C572.095 68.65 575.595 68 579.47 68C583.37 68 586.845 68.7125 589.895 70.1375C592.945 71.5375 595.307 73.525 596.982 76.1C598.682 78.675 599.532 81.6 599.532 84.875H588.282C588.282 82.375 587.495 80.4375 585.92 79.0625C584.345 77.6625 582.132 76.9625 579.282 76.9625C576.532 76.9625 574.395 77.55 572.87 78.725C571.345 79.875 570.582 81.4 570.582 83.3C570.582 85.075 571.47 86.5625 573.245 87.7625C575.045 88.9625 577.682 90.0875 581.157 91.1375C587.557 93.0625 592.22 95.45 595.145 98.3C598.07 101.15 599.532 104.7 599.532 108.95C599.532 113.675 597.745 117.388 594.17 120.088C590.595 122.763 585.782 124.1 579.732 124.1C575.532 124.1 571.707 123.338 568.257 121.813C564.807 120.263 562.17 118.15 560.345 115.475C558.545 112.8 557.645 109.7 557.645 106.175H568.932C568.932 112.2 572.532 115.213 579.732 115.213C582.407 115.213 584.495 114.675 585.995 113.6C587.495 112.5 588.245 110.975 588.245 109.025Z" fill="white"/>
<path d="M690.432 97.2875C690.432 102.663 689.482 107.375 687.582 111.425C685.682 115.475 682.957 118.6 679.407 120.8C675.882 123 671.832 124.1 667.257 124.1C662.732 124.1 658.695 123.013 655.145 120.838C651.595 118.663 648.845 115.563 646.895 111.538C644.945 107.488 643.957 102.838 643.932 97.5875V94.8875C643.932 89.5125 644.895 84.7875 646.82 80.7125C648.77 76.6125 651.507 73.475 655.032 71.3C658.582 69.1 662.632 68 667.182 68C671.732 68 675.77 69.1 679.295 71.3C682.845 73.475 685.582 76.6125 687.507 80.7125C689.457 84.7875 690.432 89.5 690.432 94.85V97.2875ZM679.032 94.8125C679.032 89.0875 678.007 84.7375 675.957 81.7625C673.907 78.7875 670.982 77.3 667.182 77.3C663.407 77.3 660.495 78.775 658.445 81.725C656.395 84.65 655.357 88.95 655.332 94.625V97.2875C655.332 102.863 656.357 107.188 658.407 110.263C660.457 113.338 663.407 114.875 667.257 114.875C671.032 114.875 673.932 113.4 675.957 110.45C677.982 107.475 679.007 103.15 679.032 97.475V94.8125Z" fill="white"/>
<path d="M748.257 114.313H772.145V123.35H737.007V68.75H748.257V114.313Z" fill="white"/>
<path d="M849.882 99.6875H828.282V114.313H853.632V123.35H817.032V68.75H853.557V77.8625H828.282V90.875H849.882V99.6875Z" fill="white"/>
<path d="M926.945 109.025C926.945 106.9 926.195 105.275 924.695 104.15C923.195 103 920.495 101.8 916.595 100.55C912.695 99.275 909.607 98.025 907.332 96.8C901.132 93.45 898.032 88.9375 898.032 83.2625C898.032 80.3125 898.857 77.6875 900.507 75.3875C902.182 73.0625 904.57 71.25 907.67 69.95C910.795 68.65 914.295 68 918.17 68C922.07 68 925.545 68.7125 928.595 70.1375C931.645 71.5375 934.007 73.525 935.682 76.1C937.382 78.675 938.232 81.6 938.232 84.875H926.982C926.982 82.375 926.195 80.4375 924.62 79.0625C923.045 77.6625 920.832 76.9625 917.982 76.9625C915.232 76.9625 913.095 77.55 911.57 78.725C910.045 79.875 909.282 81.4 909.282 83.3C909.282 85.075 910.17 86.5625 911.945 87.7625C913.745 88.9625 916.382 90.0875 919.857 91.1375C926.257 93.0625 930.92 95.45 933.845 98.3C936.77 101.15 938.232 104.7 938.232 108.95C938.232 113.675 936.445 117.388 932.87 120.088C929.295 122.763 924.482 124.1 918.432 124.1C914.232 124.1 910.407 123.338 906.957 121.813C903.507 120.263 900.87 118.15 899.045 115.475C897.245 112.8 896.345 109.7 896.345 106.175H907.632C907.632 112.2 911.232 115.213 918.432 115.213C921.107 115.213 923.195 114.675 924.695 113.6C926.195 112.5 926.945 110.975 926.945 109.025Z" fill="white"/>
</g>
</svg>
