<svg width="1024" height="262" viewBox="0 0 1024 262" fill="none" xmlns="http://www.w3.org/2000/svg">
<path d="M0 0H1024C531.675 43.8814 293.326 89.4821 0 244.267V0Z" fill="#4475F1"/>
<path d="M642.933 140.001C642.933 207.012 588.61 261.334 521.6 261.334C454.589 261.334 400.266 207.012 400.266 140.001C400.266 72.9905 454.589 18.6677 521.6 18.6677C588.61 18.6677 642.933 72.9905 642.933 140.001Z" fill="#16F7CF"/>
<g style="mix-blend-mode:overlay">
<path d="M88.5674 135.465V80.8651H107.692C114.317 80.8651 119.342 82.1401 122.767 84.6901C126.192 87.2151 127.905 90.9276 127.905 95.8276C127.905 98.5026 127.217 100.865 125.842 102.915C124.467 104.94 122.555 106.428 120.105 107.378C122.905 108.078 125.105 109.49 126.705 111.615C128.33 113.74 129.142 116.34 129.142 119.415C129.142 124.665 127.467 128.64 124.117 131.34C120.767 134.04 115.992 135.415 109.792 135.465H88.5674ZM99.8174 111.69V126.428H109.455C112.105 126.428 114.167 125.803 115.642 124.553C117.142 123.278 117.892 121.528 117.892 119.303C117.892 114.303 115.305 111.765 110.13 111.69H99.8174ZM99.8174 103.74H108.142C113.817 103.64 116.655 101.378 116.655 96.9526C116.655 94.4776 115.93 92.7026 114.48 91.6276C113.055 90.5276 110.792 89.9776 107.692 89.9776H99.8174V103.74Z" fill="white"/>
<path d="M196.23 115.478H187.267V135.465H176.017V80.8651H196.305C202.755 80.8651 207.73 82.3026 211.23 85.1776C214.73 88.0526 216.48 92.1151 216.48 97.3651C216.48 101.09 215.667 104.203 214.042 106.703C212.442 109.178 210.005 111.153 206.73 112.628L218.542 134.94V135.465H206.467L196.23 115.478ZM187.267 106.365H196.342C199.167 106.365 201.355 105.653 202.905 104.228C204.455 102.778 205.23 100.79 205.23 98.2651C205.23 95.6901 204.492 93.6651 203.017 92.1901C201.567 90.7151 199.33 89.9776 196.305 89.9776H187.267V106.365Z" fill="white"/>
<path d="M296.317 111.803H274.717V126.428H300.067V135.465H263.467V80.8651H299.992V89.9776H274.717V102.99H296.317V111.803Z" fill="white"/>
<path d="M389.467 135.465H378.217L356.317 99.5401V135.465H345.067V80.8651H356.317L378.255 116.865V80.8651H389.467V135.465Z" fill="white"/>
<path d="M477.667 89.9776H460.942V135.465H449.692V89.9776H433.192V80.8651H477.667V89.9776Z" fill="white"/>
</g>
<path d="M341 0H1024V245C685.142 171.222 539.746 116.319 341 0Z" fill="#9290FC"/>
<g style="mix-blend-mode:overlay">
<path d="M591.812 120.874C591.812 118.749 591.062 117.124 589.562 115.999C588.062 114.849 585.362 113.649 581.462 112.399C577.562 111.124 574.475 109.874 572.2 108.649C566 105.299 562.9 100.786 562.9 95.1111C562.9 92.1611 563.725 89.5361 565.375 87.2361C567.05 84.9111 569.437 83.0986 572.537 81.7986C575.662 80.4986 579.162 79.8486 583.037 79.8486C586.937 79.8486 590.412 80.5611 593.462 81.9861C596.512 83.3861 598.875 85.3736 600.55 87.9486C602.25 90.5236 603.1 93.4486 603.1 96.7236H591.85C591.85 94.2236 591.062 92.2861 589.487 90.9111C587.912 89.5111 585.7 88.8111 582.85 88.8111C580.1 88.8111 577.962 89.3986 576.437 90.5736C574.912 91.7236 574.15 93.2486 574.15 95.1486C574.15 96.9236 575.037 98.4111 576.812 99.6111C578.612 100.811 581.25 101.936 584.725 102.986C591.125 104.911 595.787 107.299 598.712 110.149C601.637 112.999 603.1 116.549 603.1 120.799C603.1 125.524 601.312 129.236 597.737 131.936C594.162 134.611 589.35 135.949 583.3 135.949C579.1 135.949 575.275 135.186 571.825 133.661C568.375 132.111 565.737 129.999 563.912 127.324C562.112 124.649 561.212 121.549 561.212 118.024H572.5C572.5 124.049 576.1 127.061 583.3 127.061C585.975 127.061 588.062 126.524 589.562 125.449C591.062 124.349 591.812 122.824 591.812 120.874Z" fill="white"/>
<path d="M694 109.136C694 114.511 693.05 119.224 691.15 123.274C689.25 127.324 686.525 130.449 682.975 132.649C679.45 134.849 675.4 135.949 670.825 135.949C666.3 135.949 662.262 134.861 658.712 132.686C655.162 130.511 652.412 127.411 650.462 123.386C648.512 119.336 647.525 114.686 647.5 109.436V106.736C647.5 101.361 648.462 96.6361 650.387 92.5611C652.337 88.4611 655.075 85.3236 658.6 83.1486C662.15 80.9486 666.2 79.8486 670.75 79.8486C675.3 79.8486 679.337 80.9486 682.862 83.1486C686.412 85.3236 689.15 88.4611 691.075 92.5611C693.025 96.6361 694 101.349 694 106.699V109.136ZM682.6 106.661C682.6 100.936 681.575 96.5861 679.525 93.6111C677.475 90.6361 674.55 89.1486 670.75 89.1486C666.975 89.1486 664.062 90.6236 662.012 93.5736C659.962 96.4986 658.925 100.799 658.9 106.474V109.136C658.9 114.711 659.925 119.036 661.975 122.111C664.025 125.186 666.975 126.724 670.825 126.724C674.6 126.724 677.5 125.249 679.525 122.299C681.55 119.324 682.575 114.999 682.6 109.324V106.661Z" fill="white"/>
<path d="M751.825 126.161H775.712V135.199H740.575V80.5986H751.825V126.161Z" fill="white"/>
<path d="M853.45 111.536H831.85V126.161H857.2V135.199H820.6V80.5986H857.125V89.7111H831.85V102.724H853.45V111.536Z" fill="white"/>
<path d="M930.512 120.874C930.512 118.749 929.762 117.124 928.262 115.999C926.762 114.849 924.062 113.649 920.162 112.399C916.262 111.124 913.175 109.874 910.9 108.649C904.7 105.299 901.6 100.786 901.6 95.1111C901.6 92.1611 902.425 89.5361 904.075 87.2361C905.75 84.9111 908.137 83.0986 911.237 81.7986C914.362 80.4986 917.862 79.8486 921.737 79.8486C925.637 79.8486 929.112 80.5611 932.162 81.9861C935.212 83.3861 937.575 85.3736 939.25 87.9486C940.95 90.5236 941.8 93.4486 941.8 96.7236H930.55C930.55 94.2236 929.762 92.2861 928.187 90.9111C926.612 89.5111 924.4 88.8111 921.55 88.8111C918.8 88.8111 916.662 89.3986 915.137 90.5736C913.612 91.7236 912.85 93.2486 912.85 95.1486C912.85 96.9236 913.737 98.4111 915.512 99.6111C917.312 100.811 919.95 101.936 923.425 102.986C929.825 104.911 934.487 107.299 937.412 110.149C940.337 112.999 941.8 116.549 941.8 120.799C941.8 125.524 940.012 129.236 936.437 131.936C932.862 134.611 928.05 135.949 922 135.949C917.8 135.949 913.975 135.186 910.525 133.661C907.075 132.111 904.437 129.999 902.612 127.324C900.812 124.649 899.912 121.549 899.912 118.024H911.2C911.2 124.049 914.8 127.061 922 127.061C924.675 127.061 926.762 126.524 928.262 125.449C929.762 124.349 930.512 122.824 930.512 120.874Z" fill="white"/>
</g>
</svg>
