<svg width="1024" height="220" viewBox="0 0 1024 220" fill="none" xmlns="http://www.w3.org/2000/svg">
<path d="M683 0H-3.05176e-05V150C338.858 104.83 484.254 71.216 683 0Z" fill="#4475F1"/>
<path d="M622 110C622 170.751 572.751 220 512 220C451.249 220 402 170.751 402 110C402 49.2487 451.249 0 512 0C572.751 0 622 49.2487 622 110Z" fill="#16F7CF"/>
<g style="mix-blend-mode:overlay">
<path d="M85 95.6V41H104.125C110.75 41 115.775 42.275 119.2 44.825C122.625 47.35 124.338 51.0625 124.338 55.9625C124.338 58.6375 123.65 61 122.275 63.05C120.9 65.075 118.988 66.5625 116.538 67.5125C119.338 68.2125 121.538 69.625 123.138 71.75C124.763 73.875 125.575 76.475 125.575 79.55C125.575 84.8 123.9 88.775 120.55 91.475C117.2 94.175 112.425 95.55 106.225 95.6H85ZM96.25 71.825V86.5625H105.888C108.538 86.5625 110.6 85.9375 112.075 84.6875C113.575 83.4125 114.325 81.6625 114.325 79.4375C114.325 74.4375 111.738 71.9 106.563 71.825H96.25ZM96.25 63.875H104.575C110.25 63.775 113.088 61.5125 113.088 57.0875C113.088 54.6125 112.363 52.8375 110.913 51.7625C109.488 50.6625 107.225 50.1125 104.125 50.1125H96.25V63.875Z" fill="white"/>
<path d="M192.663 75.6125H183.7V95.6H172.45V41H192.738C199.188 41 204.163 42.4375 207.663 45.3125C211.163 48.1875 212.913 52.25 212.913 57.5C212.913 61.225 212.1 64.3375 210.475 66.8375C208.875 69.3125 206.438 71.2875 203.163 72.7625L214.975 95.075V95.6H202.9L192.663 75.6125ZM183.7 66.5H192.775C195.6 66.5 197.788 65.7875 199.338 64.3625C200.888 62.9125 201.663 60.925 201.663 58.4C201.663 55.825 200.925 53.8 199.45 52.325C198 50.85 195.763 50.1125 192.738 50.1125H183.7V66.5Z" fill="white"/>
<path d="M292.75 71.9375H271.15V86.5625H296.5V95.6H259.9V41H296.425V50.1125H271.15V63.125H292.75V71.9375Z" fill="white"/>
<path d="M385.9 95.6H374.65L352.75 59.675V95.6H341.5V41H352.75L374.688 77V41H385.9V95.6Z" fill="white"/>
<path d="M474.1 50.1125H457.375V95.6H446.125V50.1125H429.625V41H474.1V50.1125Z" fill="white"/>
</g>
<path d="M341 0H1024V150C685.142 104.83 539.746 71.216 341 0Z" fill="#9290FC"/>
<g style="mix-blend-mode:overlay">
<path d="M588.245 81.025C588.245 78.9 587.495 77.275 585.995 76.15C584.495 75 581.795 73.8 577.895 72.55C573.995 71.275 570.907 70.025 568.632 68.8C562.432 65.45 559.332 60.9375 559.332 55.2625C559.332 52.3125 560.157 49.6875 561.807 47.3875C563.482 45.0625 565.87 43.25 568.97 41.95C572.095 40.65 575.595 40 579.47 40C583.37 40 586.845 40.7125 589.895 42.1375C592.945 43.5375 595.307 45.525 596.982 48.1C598.682 50.675 599.532 53.6 599.532 56.875H588.282C588.282 54.375 587.495 52.4375 585.92 51.0625C584.345 49.6625 582.132 48.9625 579.282 48.9625C576.532 48.9625 574.395 49.55 572.87 50.725C571.345 51.875 570.582 53.4 570.582 55.3C570.582 57.075 571.47 58.5625 573.245 59.7625C575.045 60.9625 577.682 62.0875 581.157 63.1375C587.557 65.0625 592.22 67.45 595.145 70.3C598.07 73.15 599.532 76.7 599.532 80.95C599.532 85.675 597.745 89.3875 594.17 92.0875C590.595 94.7625 585.782 96.1 579.732 96.1C575.532 96.1 571.707 95.3375 568.257 93.8125C564.807 92.2625 562.17 90.15 560.345 87.475C558.545 84.8 557.645 81.7 557.645 78.175H568.932C568.932 84.2 572.532 87.2125 579.732 87.2125C582.407 87.2125 584.495 86.675 585.995 85.6C587.495 84.5 588.245 82.975 588.245 81.025Z" fill="white"/>
<path d="M690.432 69.2875C690.432 74.6625 689.482 79.375 687.582 83.425C685.682 87.475 682.957 90.6 679.407 92.8C675.882 95 671.832 96.1 667.257 96.1C662.732 96.1 658.695 95.0125 655.145 92.8375C651.595 90.6625 648.845 87.5625 646.895 83.5375C644.945 79.4875 643.957 74.8375 643.932 69.5875V66.8875C643.932 61.5125 644.895 56.7875 646.82 52.7125C648.77 48.6125 651.507 45.475 655.032 43.3C658.582 41.1 662.632 40 667.182 40C671.732 40 675.77 41.1 679.295 43.3C682.845 45.475 685.582 48.6125 687.507 52.7125C689.457 56.7875 690.432 61.5 690.432 66.85V69.2875ZM679.032 66.8125C679.032 61.0875 678.007 56.7375 675.957 53.7625C673.907 50.7875 670.982 49.3 667.182 49.3C663.407 49.3 660.495 50.775 658.445 53.725C656.395 56.65 655.357 60.95 655.332 66.625V69.2875C655.332 74.8625 656.357 79.1875 658.407 82.2625C660.457 85.3375 663.407 86.875 667.257 86.875C671.032 86.875 673.932 85.4 675.957 82.45C677.982 79.475 679.007 75.15 679.032 69.475V66.8125Z" fill="white"/>
<path d="M748.257 86.3125H772.145V95.35H737.007V40.75H748.257V86.3125Z" fill="white"/>
<path d="M849.882 71.6875H828.282V86.3125H853.632V95.35H817.032V40.75H853.557V49.8625H828.282V62.875H849.882V71.6875Z" fill="white"/>
<path d="M926.945 81.025C926.945 78.9 926.195 77.275 924.695 76.15C923.195 75 920.495 73.8 916.595 72.55C912.695 71.275 909.607 70.025 907.332 68.8C901.132 65.45 898.032 60.9375 898.032 55.2625C898.032 52.3125 898.857 49.6875 900.507 47.3875C902.182 45.0625 904.57 43.25 907.67 41.95C910.795 40.65 914.295 40 918.17 40C922.07 40 925.545 40.7125 928.595 42.1375C931.645 43.5375 934.007 45.525 935.682 48.1C937.382 50.675 938.232 53.6 938.232 56.875H926.982C926.982 54.375 926.195 52.4375 924.62 51.0625C923.045 49.6625 920.832 48.9625 917.982 48.9625C915.232 48.9625 913.095 49.55 911.57 50.725C910.045 51.875 909.282 53.4 909.282 55.3C909.282 57.075 910.17 58.5625 911.945 59.7625C913.745 60.9625 916.382 62.0875 919.857 63.1375C926.257 65.0625 930.92 67.45 933.845 70.3C936.77 73.15 938.232 76.7 938.232 80.95C938.232 85.675 936.445 89.3875 932.87 92.0875C929.295 94.7625 924.482 96.1 918.432 96.1C914.232 96.1 910.407 95.3375 906.957 93.8125C903.507 92.2625 900.87 90.15 899.045 87.475C897.245 84.8 896.345 81.7 896.345 78.175H907.632C907.632 84.2 911.232 87.2125 918.432 87.2125C921.107 87.2125 923.195 86.675 924.695 85.6C926.195 84.5 926.945 82.975 926.945 81.025Z" fill="white"/>
</g>
</svg>
